<svg xmlns="http://www.w3.org/2000/svg" viewBox="0 0 1200 1200"><defs><style>.a{fill:#231f20;}</style></defs><path class="a" d="M218.69,874l-8.24,23.92H131.5l49.7-144.34H258l-8.24,23.92H199.8l-12.28,35.67h45.8l-7.95,23.09h-45.8l-13,37.73h52.11Z"/><path class="a" d="M242.83,857.08H270.3c-4.25,13,.88,19,12.44,19,12.21,0,20.44-6.81,23.64-16.09,9-26.19-51.76-28.25-36.78-71.76,7.38-21.44,29.06-37.53,56.1-37.53,27.26,0,38.36,15.88,29.71,41.65H327.93c3.76-11.55-.43-17.11-10.68-17.11-10,0-17.77,5.36-20.61,13.61-8.66,25.15,53.21,26,37.59,71.34-7.81,22.68-30.78,40.62-60.22,40.62C245.88,900.79,233.46,884.92,242.83,857.08Z"/><path class="a" d="M468.88,801.61c-10.44,30.31-34.57,47.84-65.32,47.84H388.08l-16.69,48.46H344.57l49.7-144.34h42.31C467.32,753.57,479.32,771.3,468.88,801.61Zm-27.47,0c5.47-15.88,1-23.92-13.35-23.92H412.79l-16.47,47.84h15.27C426,825.53,435.94,817.49,441.41,801.61Z"/><path class="a" d="M473.74,851.51,491.49,800c10.51-30.52,34.71-48.87,65-48.87,30.09,0,41.66,18.35,31.15,48.87l-17.75,51.55c-10.51,30.52-34.71,48.87-64.8,48.87C474.79,900.38,463.23,882,473.74,851.51Zm68.47,0L560,800c5.4-15.67,1.62-24.33-11.9-24.33s-23.48,8.66-28.88,24.33l-17.75,51.55c-5.39,15.67-1.4,24.33,12.12,24.33S536.82,867.18,542.21,851.51Z"/><path class="a" d="M640.17,847.6H628l-17.32,50.31H583.82l49.7-144.34h41.87c29.88,0,41.21,17.12,31.06,46.6-7.24,21-20.86,35.88-38.75,42.89l11.86,54.85H650.1Zm-3.91-24.13h14.83c12.87,0,22.61-8,27.8-23.09,5.11-14.85.84-22.68-12-22.68H652Z"/><path class="a" d="M821.26,777.69H790.51L749.12,897.9H721.64L763,777.69H732.28l8.3-24.12h89Z"/><path class="a" d="M807.66,857.08h27.47c-4.25,13,.88,19,12.44,19,12.21,0,20.44-6.81,23.64-16.09,9-26.19-51.76-28.25-36.78-71.76,7.38-21.44,29.06-37.53,56.1-37.53,27.26,0,38.36,15.88,29.71,41.65H892.76c3.76-11.55-.43-17.11-10.68-17.11-10,0-17.77,5.36-20.61,13.61-8.66,25.15,53.21,26,37.59,71.34-7.81,22.68-30.78,40.62-60.22,40.62C810.71,900.79,798.29,884.92,807.66,857.08Z"/><path class="a" d="M592.43,299.21,669.77,536l53.55-155.56H784L669.44,717.2,592.36,488,542.31,635.34H476.74ZM445.07,600.93A102.21,102.21,0,0,1,428,618.15a91.67,91.67,0,0,1-20.79,12.38,57,57,0,0,1-22.66,4.82H271.46A48.06,48.06,0,0,1,252.88,632a33.37,33.37,0,0,1-13.07-9.23,26.12,26.12,0,0,1-5.93-13.84q-1-8,3-17.64l59.49-168.85a52.82,52.82,0,0,1,13.16-18.68,97.34,97.34,0,0,1,19.58-14.06,101.18,101.18,0,0,1,22.48-9,84.27,84.27,0,0,1,21.73-3.15H479.13a46.47,46.47,0,0,1,19,3.57A30.17,30.17,0,0,1,510.67,391,29.64,29.64,0,0,1,516,405.64q.81,8.42-3.16,18.06l-56.1,157.51A84.87,84.87,0,0,1,445.07,600.93Zm-1.8-174.42h-80l-57.89,165h79.24Zm385-46h240.19L1051,432.06H880.19l-15.32,45.06,123.69-.07-19.42,56.26H845.46L833,569.55l170.44-.09-22.54,65.46H741.26Z"/><path class="a" d="M628.22,714h-433l5.69-17.35H634.63Zm334.52-17.35H710.65L703.53,714H956.78Z"/></svg>